<?xml version="1.0" encoding="UTF-8"?>
<svg width="41px" height="47px" viewBox="0 0 41 47" version="1.1" xmlns="http://www.w3.org/2000/svg" xmlns:xlink="http://www.w3.org/1999/xlink">
    <!-- Generator: Sketch 41 (35326) - http://www.bohemiancoding.com/sketch -->
    <title>glifo-blanco</title>
    <desc>Created with Sketch.</desc>
    <defs></defs>
    <g id="Page-1" stroke="none" stroke-width="1" fill="none" fill-rule="evenodd">
        <g id="nuestro-logo" transform="translate(-35.000000, -20.000000)" fill="#FFFFFF">
            <g id="header">
                <g id="glifo-blanco" transform="translate(35.000000, 20.000000)">
                    <path d="M39.6942981,9.78095955 L30.2355689,15.6589201 C30.2355689,15.6589201 22.9378791,11.5668438 21.9007168,11.0058222 C20.0633213,10.0259321 19.0746372,10.5869537 17.7309009,11.3632751 L10.9767142,15.5464398 L1.34182448,10.2702145 L16.4895836,1.04958653 C18.4123282,0.029672729 20.947538,-0.485114616 22.964508,0.619676992 L39.6942981,9.78095955 Z" id="Fill-1"></path>
                    <path d="M0,13.1403265 L9.61918548,18.745022 C9.61918548,18.745022 9.53656755,27.1796677 9.54271268,28.367957 C9.56524485,30.4671301 10.523886,31.0785263 11.8403106,31.9031521 L18.6969162,35.9124209 L18.6969162,46.9865593 L3.45834572,37.9198155 C1.65508984,36.697023 0,34.6896284 0,32.3710152 L0,13.1403265 Z" id="Fill-3"></path>
                    <path d="M40.750169,13.1403265 L31.1309835,18.745022 C31.1309835,18.745022 31.2136014,27.1796677 31.2074563,28.367957 C31.1849241,30.4671301 30.226283,31.0785263 28.9098584,31.9031521 L22.0532527,35.9124209 L22.0532527,46.9865593 L37.2918232,37.9198155 C39.0950791,36.697023 40.750169,34.6896284 40.750169,32.3710152 L40.750169,13.1403265 Z" id="Fill-5"></path>
                    <path d="M20.3604727,23.1886167 C20.2812687,23.1886167 20.2047959,23.1465228 20.1631456,23.0713059 C20.102377,22.9608957 20.1412962,22.822193 20.2505431,22.7607773 L30.5095054,16.9773554 C30.6180695,16.9166298 30.7559936,16.9552734 30.8167622,17.0656835 C30.8775308,17.1760937 30.8386116,17.3147964 30.7293647,17.3762121 L20.4704024,23.159634 C20.4355799,23.1789558 20.3980263,23.1886167 20.3604727,23.1886167" id="Fill-7"></path>
                    <path d="M20.3316922,36.1161966 L20.3309909,36.1161966 C20.2026618,36.1155065 20.0988764,36.0133771 20.0995777,35.8870955 L20.1353415,22.9594466 C20.1360428,22.833855 20.2398281,22.7317256 20.3674561,22.7317256 L20.3681573,22.7317256 C20.4964865,22.7324157 20.6002718,22.8345451 20.5995706,22.9608267 L20.5638067,35.8884757 C20.5631055,36.0147573 20.4593201,36.1161966 20.3316922,36.1161966" id="Fill-9"></path>
                    <path d="M20.3419007,23.1886167 C20.3036643,23.1886167 20.2647452,23.1789558 20.2285571,23.1575638 L10.3171363,17.374832 C10.2092551,17.3120362 10.1717014,17.1719533 10.2345184,17.0629233 C10.2966525,16.9532032 10.4352595,16.9159398 10.5431407,16.9794256 L20.4552444,22.7628475 C20.5631256,22.8256433 20.5999964,22.9650361 20.5371795,23.0740661 C20.4962119,23.1479029 20.4197391,23.1886167 20.3419007,23.1886167" id="Fill-11"></path>
                </g>
            </g>
        </g>
    </g>
</svg>